<svg width="6418" height="1668" viewBox="0 0 6418 1668" fill="none" xmlns="http://www.w3.org/2000/svg">
<rect width="1604.25" height="1667" transform="translate(0.015625 0.547119)" fill="#9854CB"/>
<ellipse cx="721.667" cy="966.919" rx="434.03" ry="462.235" fill="#FFBCD9"/>
<ellipse cx="1099.55" cy="470.148" rx="217.1" ry="231.208" fill="#FF4A97"/>
<path d="M1155.7 966.919C1155.7 906.218 1144.47 846.111 1122.66 790.03C1100.85 733.949 1068.88 682.992 1028.57 640.07C988.269 597.147 940.421 563.1 887.763 539.87C835.104 516.641 778.664 504.685 721.667 504.685C664.669 504.685 608.229 516.641 555.57 539.87C502.912 563.1 455.064 597.148 414.761 640.07C374.458 682.992 342.487 733.949 320.675 790.03C298.863 846.111 287.637 906.218 287.637 966.919L721.667 966.919H1155.7Z" fill="#FF4A97"/>
<rect width="1604.25" height="1667" transform="translate(1604.27 0.547119)" fill="#371BE4"/>
<circle cx="2610.47" cy="529.174" r="267.75" fill="#FF024B"/>
<circle cx="2188.2" cy="1139.42" r="267.247" fill="#FF024B"/>
<circle cx="2563.98" cy="942.896" r="462.235" fill="#FFBCD9"/>
<path d="M3026.22 943.254C3026.22 882.553 3014.26 822.445 2991.03 766.365C2967.8 710.284 2933.75 659.327 2890.83 616.405C2847.91 573.482 2796.95 539.435 2740.87 516.205C2684.79 492.976 2624.68 481.02 2563.98 481.02L2563.98 943.254H3026.22Z" fill="#FF024B"/>
<ellipse cx="2225.57" cy="700.424" rx="439" ry="439" fill="#FF024B"/>
<rect width="1604.25" height="1667" transform="translate(3208.52 0.547119)" fill="#FF024B"/>
<circle cx="4010.64" cy="770.227" r="462.235" fill="#FFBCD9"/>
<path d="M4472.88 770.226C4472.88 709.525 4460.92 649.417 4437.69 593.337C4414.46 537.256 4380.41 486.299 4337.49 443.377C4294.57 400.454 4243.61 366.406 4187.53 343.177C4131.45 319.948 4071.34 307.991 4010.64 307.991C3949.94 307.991 3889.83 319.948 3833.75 343.177C3777.67 366.406 3726.71 400.454 3683.79 443.377C3640.87 486.299 3606.82 537.256 3583.59 593.337C3560.36 649.417 3548.41 709.525 3548.41 770.226L4010.64 770.226H4472.88Z" fill="#371BE4"/>
<path d="M3548.41 770.226C3548.41 709.525 3560.36 649.418 3583.59 593.337C3606.82 537.256 3640.87 486.3 3683.79 443.377C3726.71 400.455 3777.67 366.407 3833.75 343.177C3889.83 319.948 3949.94 307.992 4010.64 307.992L4010.64 770.226L4010.64 1360.1H3548.41V770.226Z" fill="#371BE4"/>
<rect width="1604.25" height="1667" transform="translate(4812.77 0.547119)" fill="#FF4A97"/>
<circle cx="5562.71" cy="786.923" r="231.208" fill="#9854CB"/>
<circle cx="5605.71" cy="804.693" r="513.308" fill="#9854CB"/>
<circle cx="5231.46" cy="1206.23" r="127.27" transform="rotate(-26.2942 5231.46 1206.23)" fill="#9854CB"/>
<circle cx="5092.4" cy="1132.29" r="127.27" transform="rotate(-26.2942 5092.4 1132.29)" fill="#9854CB"/>
<circle cx="5135.31" cy="961.81" r="127.27" transform="rotate(-26.2942 5135.31 961.81)" fill="#9854CB"/>
<ellipse cx="6099.12" cy="974.116" rx="127.27" ry="127.27" transform="rotate(-162.4 6099.12 974.116)" fill="#9854CB"/>
<ellipse cx="6148.06" cy="1123.81" rx="127.27" ry="127.27" transform="rotate(-162.4 6148.06 1123.81)" fill="#9854CB"/>
<ellipse cx="5998.94" cy="1216.91" rx="127.27" ry="127.27" transform="rotate(-162.4 5998.94 1216.91)" fill="#9854CB"/>
<ellipse cx="5611.27" cy="914.474" rx="462.235" ry="462.235" fill="#FFBCD9"/>
<path d="M5231.46 591.076C5245.94 616.783 5265.35 639.385 5288.57 657.592C5311.79 675.799 5338.37 689.253 5366.79 697.188C5395.22 705.122 5424.92 707.381 5454.21 703.836C5483.51 700.29 5511.82 691.009 5537.52 676.523C5563.23 662.037 5585.83 642.629 5604.04 619.408C5622.25 596.187 5635.7 569.608 5643.64 541.187C5651.57 512.766 5653.83 483.06 5650.28 453.767C5646.74 424.473 5637.46 396.164 5622.97 370.457L5427.22 480.766L5231.46 591.076Z" fill="#9854CB"/>
<path d="M6014.49 591.076C6000 616.783 5980.59 639.385 5957.37 657.592C5934.15 675.799 5907.57 689.253 5879.15 697.188C5850.73 705.122 5821.02 707.381 5791.73 703.836C5762.44 700.29 5734.13 691.009 5708.42 676.523C5682.71 662.037 5660.11 642.629 5641.9 619.408C5623.7 596.187 5610.24 569.608 5602.31 541.187C5594.37 512.766 5592.12 483.06 5595.66 453.767C5599.21 424.473 5608.49 396.164 5622.97 370.457L5818.73 480.766L6014.49 591.076Z" fill="#9854CB"/>
</svg>
