<svg width="2979" height="2979" viewBox="0 0 2979 2979" fill="none" xmlns="http://www.w3.org/2000/svg">
<rect width="2979" height="2979" rx="1489.5" fill="white"/>
<circle cx="470.393" cy="470.393" r="470.393" transform="matrix(-1 0 0 1 1601.8 484)" fill="#FF024B"/>
<circle cx="469.508" cy="469.508" r="469.508" transform="matrix(-1 0 0 1 2342.76 1557)" fill="#FF024B"/>
<circle cx="812.07" cy="812.07" r="812.07" transform="matrix(-1 0 0 1 2025.14 869.159)" fill="#FFBCD9"/>
<path d="M401.012 1681.86C401.012 1575.21 422.017 1469.62 462.827 1371.09C503.638 1272.57 563.454 1183.04 638.862 1107.64C714.269 1032.23 803.791 972.412 902.316 931.602C1000.84 890.791 1106.44 869.787 1213.08 869.787L1213.08 1681.86H401.012Z" fill="#FF024B"/>
<circle cx="771.25" cy="771.25" r="771.25" transform="matrix(-1 0 0 1 2578.87 484)" fill="#FF024B"/>
</svg>
