<svg width="1115" height="2098" viewBox="0 0 1115 2098" fill="none" xmlns="http://www.w3.org/2000/svg">
<path d="M596.777 8.97713C578.807 8.73996 560.966 12.0446 544.273 18.7023L645.672 272.926C662.365 266.268 677.583 256.388 690.458 243.849C703.332 231.31 713.611 216.357 720.707 199.846C727.803 183.335 731.577 165.587 731.814 147.617C732.051 129.647 728.747 111.806 722.089 95.1135C715.431 78.422 705.547 63.207 693.009 50.3335C680.469 37.4591 665.517 27.1805 649.006 20.0845C632.495 12.9886 614.747 9.21429 596.777 8.97713Z" fill="#FF024B"/>
<path d="M123.494 463.432C135.199 449.795 149.475 438.596 165.508 430.476L289.168 674.647C273.135 682.767 255.66 687.65 237.741 689.016C219.821 690.383 201.808 688.206 184.73 682.611C167.651 677.017 151.842 668.112 138.204 656.408C124.567 644.703 113.369 630.427 105.249 614.394C97.1296 598.363 92.252 580.887 90.8855 562.968C89.5189 545.049 91.6953 527.036 97.2903 509.957C102.885 492.879 111.789 477.069 123.494 463.432Z" fill="#FF4A97"/>
<path d="M1024.1 1482.79L1024.6 1482.45L1025.03 1482.02C1026.73 1480.33 1028.49 1477.97 1028.92 1474.96C1029.38 1471.79 1028.21 1469.08 1026.43 1467.1C1015.58 1451.64 1001.06 1439.9 983.038 1431.88C964.933 1423.17 945.204 1418.86 923.943 1418.86C888.759 1418.86 859.124 1429.52 835.506 1451.12C811.865 1472.73 799.982 1499.93 799.982 1532.28C799.982 1559.89 805.245 1584.49 815.957 1605.91L815.991 1605.98L816.026 1606.04C827.136 1626.96 840.258 1645.02 855.423 1660.19C870.309 1675.08 893.146 1695.33 923.829 1720.9C956.333 1748.3 980.727 1770.49 997.109 1787.51L997.19 1787.59L997.273 1787.67C1014.01 1803.78 1028.64 1823.38 1041.15 1846.51C1053.39 1869.16 1059.57 1894.65 1059.57 1923.1C1059.57 1957.2 1047.48 1984.89 1023.29 2006.66C999.747 2027.78 968.436 2038.61 928.733 2038.61C886.063 2038.61 851.241 2025.37 823.775 1999.12C796.372 1972.94 782.236 1938.82 781.61 1896.23C781.602 1893.69 780.955 1890.68 778.615 1888.34C776.259 1885.99 773.224 1885.35 770.681 1885.35H743.86C741.317 1885.35 738.282 1885.99 735.926 1888.34C733.57 1890.7 732.93 1893.74 732.93 1896.28V1896.33L732.931 1896.39C733.587 1933.11 742.453 1966.09 759.647 1995.19C776.79 2024.2 799.913 2047 828.952 2063.5L829.024 2063.54L829.096 2063.58C858.807 2079.42 892.064 2087.29 928.733 2087.29C962.786 2087.29 993.461 2080.41 1020.62 2066.5C1047.72 2052.62 1069.01 2033.36 1084.32 2008.74C1100.31 1983.43 1108.25 1954.82 1108.25 1923.1C1108.25 1887.72 1100.71 1855.45 1085.53 1826.41C1070.6 1797.19 1052.68 1772.39 1031.74 1752.08C1011.73 1731.44 986.018 1708.31 954.647 1682.7C926.647 1659.79 905.71 1642.03 891.782 1629.37C878.851 1616.42 868.419 1602.28 860.445 1586.96C852.651 1571.36 848.663 1553.18 848.663 1532.28C848.663 1513.61 855.567 1498.37 869.555 1486.13C883.586 1473.86 901.55 1467.54 923.943 1467.54C952.413 1467.54 972.707 1477.12 986.01 1495.63L986.301 1496.04L986.654 1496.39C988.348 1498.08 990.707 1499.85 993.719 1500.28C996.856 1500.73 999.539 1499.59 1001.52 1497.84L1024.1 1482.79Z" fill="#371BE4" stroke="#371BE4" stroke-width="12.2807"/>
<path d="M684.786 2040.39H684.692L684.597 2040.39L653.902 2041.37L653.861 2041.37L653.82 2041.37C639.749 2042.02 132.362 2042.99 109.164 2043C109.146 2043 109.128 2043 109.111 2043L58.5529 2042.12C62.7477 1926.46 64.8469 1835.38 64.8469 1732.89C64.8469 1626.72 62.9869 1528.67 59.2655 1438.74C59.2439 1436.29 58.6404 1433.4 56.4588 1431.1C54.184 1428.72 51.1985 1428.03 48.653 1428.03H48.4297L48.207 1428.05L22.3558 1429.99C19.8675 1430.03 17.0033 1430.75 14.8037 1433.06C12.5809 1435.39 11.9964 1438.36 11.9964 1440.83V1440.96L12.0015 1441.08C15.0971 1515.85 16.6471 1613.76 16.6471 1734.84C16.6471 1883.24 14.1675 1986.92 9.21338 2083.82L8.90219 2089.9L14.9941 2090.08L48.392 2091.06C48.4067 2091.06 48.4214 2091.06 48.4361 2091.06C63.4335 2091.71 82.7372 2092.04 106.321 2092.04H106.33H106.338L654.11 2090.41L654.196 2090.41L654.282 2090.41L684.898 2089.43C687.113 2089.41 689.81 2088.79 691.895 2086.61C693.783 2084.62 695.399 2081.92 695.399 2078.59V2051.24C695.399 2048.76 694.815 2045.8 692.592 2043.46C690.317 2041.07 687.332 2040.39 684.786 2040.39Z" fill="#371BE4" stroke="#371BE4" stroke-width="11.9247"/>
<path d="M839.415 729.216H839.356L839.296 729.217C776.474 730.473 721.23 744.304 673.741 770.895C626.882 796.86 590.426 833.319 564.462 880.179L564.447 880.206L564.433 880.234C539.091 927.116 526.51 981.135 526.51 1042.12C526.51 1058.47 527.453 1075.73 529.332 1093.89L529.335 1093.92L529.338 1093.94C535.645 1150.08 554.279 1199.74 585.303 1242.79L585.316 1242.81L585.328 1242.83C616.322 1285.21 656.486 1318.08 705.712 1341.43L705.725 1341.44L705.738 1341.44C755.609 1364.8 811.366 1376.42 872.9 1376.42C875.6 1376.42 878.696 1375.97 881.249 1374.15C884.171 1372.06 885.373 1368.92 885.373 1365.81V1339.76C885.373 1336.31 883.817 1333.16 880.711 1331.22C878.072 1329.57 874.878 1329.15 871.97 1329.15C818.161 1329.15 770.06 1319.06 727.552 1299.02C685.001 1278.96 650.453 1251.07 623.788 1215.33C597.783 1179.02 582.006 1136.92 576.533 1088.89C574.695 1072.35 573.78 1056.45 573.78 1041.19C573.78 988.693 584.456 942.882 605.614 903.582C627.399 863.65 657.897 832.858 697.187 811.093C737.109 789.322 784.481 777.715 839.49 776.485C841.944 776.473 844.855 775.841 847.119 773.577C849.407 771.289 850.028 768.342 850.028 765.872V739.829C850.028 737.359 849.407 734.412 847.119 732.125C844.832 729.837 841.885 729.216 839.415 729.216Z" fill="#371BE4" stroke="#371BE4" stroke-width="11.9247"/>
<path d="M451.225 830.372C451.645 827.427 450.565 824.928 448.991 823.131C440.607 811.219 429.402 802.173 415.539 795.994C401.602 789.3 386.429 785.987 370.115 785.987C343.125 785.987 320.278 794.182 302.058 810.84C283.815 827.519 274.629 848.553 274.629 873.501C274.629 894.607 278.653 913.485 286.894 929.968L286.929 930.038L286.966 930.107C295.442 946.061 305.467 959.872 317.072 971.477C328.389 982.794 345.713 998.156 368.937 1017.51C393.51 1038.23 411.912 1054.97 424.245 1067.78L424.328 1067.86L424.414 1067.95C436.934 1080 447.906 1094.68 457.295 1112.05C466.411 1128.91 471.026 1147.91 471.026 1169.18C471.026 1194.52 462.066 1215 444.138 1231.14C426.705 1246.78 403.454 1254.87 373.739 1254.87C341.842 1254.87 315.934 1244.99 295.507 1225.47C275.143 1206.01 264.601 1180.66 264.132 1148.84C264.123 1146.66 263.563 1143.88 261.367 1141.69C259.153 1139.47 256.348 1138.92 254.162 1138.92H233.87C231.683 1138.92 228.878 1139.47 226.664 1141.69C224.45 1143.9 223.899 1146.7 223.899 1148.89V1148.95L223.9 1149C224.401 1177.05 231.177 1202.3 244.349 1224.59C257.468 1246.79 275.177 1264.25 297.408 1276.89L297.481 1276.93L297.556 1276.97C320.305 1289.1 345.745 1295.11 373.739 1295.11C399.737 1295.11 423.216 1289.85 444.03 1279.19C464.797 1268.55 481.143 1253.78 492.898 1234.88C505.169 1215.44 511.258 1193.48 511.258 1169.18C511.258 1142.17 505.5 1117.48 493.882 1095.25C482.514 1073.01 468.859 1054.1 452.873 1038.6C437.68 1022.92 418.18 1005.38 394.426 985.992C373.267 968.68 357.463 955.27 346.958 945.726C337.308 936.056 329.532 925.515 323.591 914.101C317.834 902.568 314.862 889.089 314.862 873.501C314.862 859.863 319.875 848.804 330.087 839.868C340.343 830.894 353.515 826.219 370.115 826.219C391.227 826.219 406.01 833.298 415.691 846.767L415.992 847.186L416.357 847.551C417.755 848.949 419.861 850.576 422.665 850.977C425.574 851.392 428.047 850.344 429.839 848.802L446.832 837.473L447.354 837.125L447.799 836.68C449.197 835.283 450.824 833.177 451.225 830.372Z" fill="#371BE4" stroke="#371BE4" stroke-width="12.6936"/>
<path d="M54.5088 1330.35C56.8274 1285.91 59.144 1224.75 61.4595 1146.87C95.7096 1147.98 121.698 1148.54 139.388 1148.54H170.083C172.27 1148.54 175.014 1148.13 177.295 1146.3C179.568 1144.48 180.498 1141.99 180.667 1139.66L186.005 1116.53C186.613 1114.94 186.782 1113.17 186.331 1111.36C185.896 1109.63 184.984 1108.24 184.02 1107.17C181.925 1104.28 178.793 1102.2 174.733 1102.2H144.969C117.25 1102.2 89.5306 1101.39 61.8108 1099.77C62.3172 1081.26 62.5691 1055.21 62.5691 1021.66C62.5691 945.219 60.7906 864.051 57.235 778.157C93.8725 777.041 121.244 776.485 139.388 776.485C169.645 776.485 214.501 777.721 274.009 780.201L274.133 780.206H274.257C276.161 780.206 278.497 779.783 280.485 778.221C281.552 777.572 282.59 776.678 283.404 775.458C284.243 774.199 284.686 772.826 284.823 771.464L291.073 747.359C291.711 745.752 291.896 743.945 291.435 742.103C291.077 740.67 290.394 739.475 289.625 738.503C288.99 737.161 288.047 735.859 286.671 734.826C284.877 733.481 282.843 732.966 280.936 732.938C228.762 730.455 169.795 729.216 104.043 729.216C64.9629 729.216 35.4335 729.526 15.4948 730.149L9.51722 730.336L9.72214 736.313C13.4406 844.768 15.2994 947.324 15.2994 1043.98V1103.43L14.3714 1138.7L14.37 1138.75L14.3696 1138.8C13.7504 1203.19 11.2734 1280.62 6.9351 1371.1L6.64729 1377.1L12.6523 1377.34C90.1829 1380.45 148.877 1382 188.685 1382C229.096 1382 287.135 1380.45 362.759 1377.35C364.977 1377.33 367.077 1376.75 369.006 1375.79L369.872 1375.36L370.556 1374.67C371.914 1373.31 372.938 1371.59 373.349 1369.53C373.714 1367.71 373.53 1365.96 373.075 1364.4L368.564 1339.14C368.431 1336.75 367.512 1334.18 365.181 1332.32C362.9 1330.49 360.156 1330.08 357.969 1330.08H357.828L357.688 1330.09C305.067 1332.56 254.314 1333.8 205.427 1333.8C158.882 1333.8 108.576 1332.65 54.5088 1330.35Z" fill="#371BE4" stroke="#371BE4" stroke-width="11.9247"/>
<path d="M1016.85 70.1729L1017.36 69.8356L1017.79 69.4057C1019.48 67.7111 1021.25 65.3527 1021.68 62.3402C1022.13 59.1713 1020.96 56.4659 1019.18 54.4812C1008.33 39.0292 993.818 27.2874 975.792 19.2594C957.687 10.5579 937.958 6.2395 916.697 6.2395C881.513 6.2395 851.878 16.9066 828.259 38.5006C804.619 60.1149 792.736 87.3111 792.736 119.664C792.736 147.273 797.999 171.87 808.711 193.294L808.745 193.361L808.78 193.428C819.89 214.341 833.012 232.409 848.177 247.573C863.063 262.46 885.9 282.714 916.583 308.284C949.087 335.689 973.481 357.877 989.863 374.89L989.944 374.974L990.027 375.054C1006.76 391.168 1021.4 410.76 1033.91 433.898C1046.15 456.547 1052.32 482.03 1052.32 510.483C1052.32 544.584 1040.23 572.273 1016.04 594.045C992.5 615.169 961.19 625.995 921.487 625.995C878.817 625.995 843.995 612.752 816.529 586.507C789.126 560.321 774.99 526.208 774.364 483.612C774.356 481.079 773.709 478.069 771.369 475.728C769.013 473.372 765.978 472.732 763.435 472.732H736.614C734.071 472.732 731.036 473.372 728.68 475.728C726.324 478.084 725.684 481.119 725.684 483.662V483.717L725.685 483.772C726.341 520.49 735.207 553.477 752.401 582.575C769.544 611.586 792.667 634.385 821.706 650.885L821.778 650.925L821.85 650.964C851.561 666.81 884.818 674.675 921.487 674.675C955.54 674.675 986.215 667.793 1013.37 653.885C1040.48 640 1061.77 620.743 1077.08 596.123C1093.06 570.812 1101.01 542.206 1101.01 510.483C1101.01 475.107 1093.47 442.835 1078.29 413.79C1063.35 384.576 1045.44 359.773 1024.49 339.468C1004.49 318.825 978.772 295.694 947.401 270.085C919.401 247.176 898.464 229.411 884.536 216.755C871.605 203.805 861.172 189.669 853.199 174.348C845.405 158.74 841.417 140.564 841.417 119.664C841.417 100.992 848.321 85.7564 862.309 73.5165C876.34 61.2399 894.304 54.9201 916.697 54.9201C945.167 54.9201 965.461 64.5075 978.763 83.016L979.055 83.4212L979.408 83.7741C981.102 85.4688 983.461 87.2358 986.473 87.6661C989.61 88.1142 992.293 86.9714 994.272 85.2251L1016.85 70.1729Z" fill="#371BE4" stroke="#371BE4" stroke-width="12.2807"/>
<path d="M716.318 668.252L716.279 668.026L716.222 667.802C698.667 598.236 633.011 343.088 512.054 35.9898L506.507 38.1748L512.054 35.9898C508.837 27.8207 500.123 23.1416 491.514 25.0645L476.792 28.353C468.237 30.2638 462.361 38.0723 462.795 46.7808C466.453 120.169 464.858 198.027 457.996 280.363C450.724 365.854 437.585 448.176 418.584 527.333L418.582 527.337L410.357 561.718C404.301 584.595 396.871 610.376 388.061 639.066C387.108 641.379 386.995 644.132 388.442 646.726C389.768 649.103 391.966 650.522 393.81 651.406L394.159 651.574L394.528 651.695L419.53 659.903L419.659 659.945L419.789 659.981C422.83 660.829 425.897 660.303 428.482 658.489C430.621 656.988 432.2 654.918 433.027 652.388L433.035 652.364L433.043 652.34C442.404 622.883 450.793 594.395 458.208 566.877C491.782 564.679 502.502 566.041 535.381 570.217C538.571 570.622 541.971 571.054 545.62 571.511C582.502 576.136 612.002 576.202 632.325 576.041C636.821 588.625 642.757 603.97 648.616 619.115C650.025 622.759 651.43 626.391 652.81 629.97C660.578 650.128 667.44 668.377 670.082 678.283C670.542 680.645 671.711 683.267 674.302 684.993C676.932 686.746 679.885 686.806 682.24 686.402L682.439 686.368L682.634 686.32L707.834 680.221C710.138 679.79 712.789 678.736 714.625 676.286C716.571 673.688 716.736 670.689 716.318 668.252ZM546.668 521.661C536.08 521.756 527.863 521.225 519.268 520.67C516.255 520.475 513.196 520.278 509.972 520.103C499.148 519.517 486.926 519.228 469.318 520.279C495.292 400.478 509.434 282.914 511.727 167.593C536.606 234.875 555.501 300.438 571.482 359.436C575.727 375.109 579.772 390.341 583.673 405.031C595.742 450.479 606.431 490.73 617.395 522.731C609.267 524.364 601.292 524.342 591.754 523.771C588.854 523.598 585.798 523.372 582.558 523.132C572.611 522.397 560.928 521.532 546.668 521.661Z" fill="#371BE4" stroke="#371BE4" stroke-width="11.9247"/>
<path d="M42.8681 105.821C84.8266 202.091 129.906 299.702 178.105 398.652L178.109 398.66L178.113 398.667C231.245 506.975 279.723 599.859 323.546 677.302L325.47 680.701L329.354 680.296L347.647 678.386C349.997 678.273 352.093 677.178 353.504 675.328C355.376 673.339 355.995 670.844 356.011 668.653C360.124 502.389 362.181 317.132 362.181 112.885V18.1773C362.181 16.1852 361.926 13.7177 360.674 11.5604C359.135 8.90792 356.464 7.38293 353.414 7.38293H337.709C334.66 7.38293 331.989 8.90794 330.449 11.5604C329.197 13.7178 328.942 16.1852 328.942 18.1773V88.7248C328.942 272.149 327.406 442.037 324.335 598.389C283.166 525.085 238.185 438.411 189.389 338.35C136.386 229.017 87.4877 121.298 42.6944 15.1928C42.2466 13.7297 41.6139 12.1549 40.6386 10.8105C40.0953 10.0616 39.3016 9.20596 38.246 8.5369C37.8269 8.12059 37.3489 7.75458 36.8189 7.45021C35.1934 6.51659 33.5236 6.41648 32.5874 6.41648H32.2218L31.859 6.46113L16.3767 8.36658C14.4151 8.50113 12.8882 9.39982 11.8692 10.2776C10.804 11.1953 10.0376 12.2946 9.48226 13.2515L9.48218 13.2517C8.32365 15.2479 8.11576 17.4737 8.11576 19.1437V19.1969L8.11671 19.2502C10.3594 144.837 11.4811 293.304 11.4811 464.656C11.4811 557.428 11.2941 625.377 10.9204 668.516L10.9202 668.541V668.567C10.9202 670.441 11.1932 672.288 11.7173 674.094L12.2107 675.795L13.552 676.95C14.9403 678.146 16.8553 679.222 19.2194 679.349L34.6635 681.25L35.0263 681.294H35.3918C38.4415 681.294 41.1124 679.769 42.6519 677.117C43.898 674.97 44.1561 672.516 44.1586 670.529C44.5326 628.622 44.7195 562.57 44.7195 472.387C44.7195 328.416 44.1024 206.226 42.8681 105.821Z" fill="#371BE4" stroke="#371BE4" stroke-width="11.9247"/>
<circle cx="384.581" cy="1710.62" r="253.167" fill="#FFBCD9"/>
<path d="M637.747 1710.62C637.747 1677.38 631.199 1644.46 618.476 1613.74C605.753 1583.03 587.105 1555.12 563.596 1531.61C540.088 1508.1 512.179 1489.45 481.463 1476.73C450.748 1464.01 417.827 1457.46 384.581 1457.46C351.334 1457.46 318.413 1464.01 287.698 1476.73C256.982 1489.45 229.073 1508.1 205.565 1531.61C182.056 1555.12 163.408 1583.03 150.685 1613.74C137.962 1644.46 131.414 1677.38 131.414 1710.62L384.581 1710.62H637.747Z" fill="#9854CB"/>
<path d="M637.745 1690.96C637.745 1660.3 631.196 1629.93 618.473 1601.6C605.751 1573.27 587.103 1547.53 563.594 1525.85C540.085 1504.17 512.176 1486.97 481.461 1475.23C450.745 1463.5 417.824 1457.46 384.578 1457.46L384.578 1690.96L384.578 1988.95H637.745V1690.96Z" fill="#9854CB"/>
<ellipse cx="753.374" cy="1794.64" rx="27.3975" ry="29.1778" fill="#FF4A97"/>
<ellipse cx="753.374" cy="1694.03" rx="27.3975" ry="29.1778" fill="#FF4A97"/>
<ellipse cx="753.374" cy="1593.41" rx="27.3975" ry="29.1778" fill="#FF4A97"/>
<circle cx="104.44" cy="104.44" r="104.44" transform="matrix(-1 0 0 1 898.051 821.188)" fill="#FF024B"/>
<circle cx="104.243" cy="104.243" r="104.243" transform="matrix(-1 0 0 1 1062.56 1059.42)" fill="#FF024B"/>
<circle cx="180.301" cy="180.301" r="180.301" transform="matrix(-1 0 0 1 992.043 906.704)" fill="#FFBCD9"/>
<path d="M631.441 1087.15C631.441 1063.47 636.105 1040.02 645.166 1018.15C654.227 996.272 667.507 976.396 684.25 959.654C700.993 942.911 720.869 929.63 742.744 920.569C764.619 911.508 788.065 906.845 811.742 906.845L811.742 1087.15H631.441Z" fill="#FF024B"/>
<circle cx="171.238" cy="171.238" r="171.238" transform="matrix(-1 0 0 1 1114.98 821.188)" fill="#FF024B"/>
</svg>
