<svg width="3494" height="2261" viewBox="0 0 3494 2261" fill="none" xmlns="http://www.w3.org/2000/svg">
<path d="M174.381 1748.76V1615.72H189.965L249.644 1716.26H241.282L300.2 1615.72H315.785L315.975 1748.76H297.729L297.539 1644.42H301.91L249.454 1732.61H240.711L187.875 1644.42H192.626V1748.76H174.381ZM373.198 1673.12H441.619V1689.28H373.198V1673.12ZM374.908 1732.23H452.452V1748.76H355.902V1615.72H449.792V1632.26H374.908V1732.23ZM483.227 1748.76V1615.72H535.113C546.77 1615.72 556.717 1617.56 564.953 1621.23C573.189 1624.91 579.524 1630.23 583.959 1637.2C588.394 1644.17 590.611 1652.47 590.611 1662.1C590.611 1671.73 588.394 1680.03 583.959 1686.99C579.524 1693.84 573.189 1699.09 564.953 1702.77C556.717 1706.44 546.77 1708.28 535.113 1708.28H493.681L502.233 1699.54V1748.76H483.227ZM572.175 1748.76L538.344 1700.49H558.681L592.892 1748.76H572.175ZM502.233 1701.44L493.681 1692.13H534.543C546.707 1692.13 555.893 1689.53 562.102 1684.33C568.437 1679.01 571.605 1671.6 571.605 1662.1C571.605 1652.59 568.437 1645.24 562.102 1640.05C555.893 1634.85 546.707 1632.26 534.543 1632.26H493.681L502.233 1622.75V1701.44ZM621.317 1748.76V1615.72H636.902L696.581 1716.26H688.218L747.137 1615.72H762.722L762.912 1748.76H744.666L744.476 1644.42H748.847L696.391 1732.61H687.648L634.812 1644.42H639.563V1748.76H621.317ZM782.693 1748.76L842.942 1615.72H861.757L922.196 1748.76H902.24L848.453 1626.37H856.056L802.269 1748.76H782.693ZM808.351 1715.5L813.482 1700.3H888.366L893.878 1715.5H808.351ZM865.749 1604.32C862.708 1604.32 859.984 1603.68 857.576 1602.42C855.295 1601.15 853.205 1599.69 851.304 1598.05C849.404 1596.27 847.566 1594.75 845.792 1593.49C844.019 1592.22 842.245 1591.58 840.471 1591.58C837.683 1591.58 835.403 1592.66 833.629 1594.82C831.981 1596.84 831.031 1599.69 830.778 1603.37H820.515C820.768 1596.27 822.542 1590.63 825.836 1586.45C829.131 1582.27 833.565 1580.18 839.14 1580.18C842.181 1580.18 844.906 1580.88 847.313 1582.27C849.72 1583.54 851.874 1585.06 853.775 1586.83C855.676 1588.48 857.449 1589.94 859.097 1591.2C860.871 1592.47 862.644 1593.1 864.418 1593.1C867.206 1593.1 869.487 1592.09 871.26 1590.06C873.034 1588.04 873.985 1585.25 874.111 1581.7H884.375C884.248 1588.42 882.474 1593.87 879.053 1598.05C875.758 1602.23 871.324 1604.32 865.749 1604.32ZM980.815 1750.28C970.678 1750.28 960.985 1748.76 951.736 1745.72C942.486 1742.56 935.201 1738.5 929.879 1733.56L936.911 1718.73C941.979 1723.17 948.441 1726.84 956.297 1729.76C964.153 1732.67 972.326 1734.13 980.815 1734.13C988.544 1734.13 994.816 1733.24 999.631 1731.47C1004.45 1729.69 1007.99 1727.29 1010.27 1724.25C1012.55 1721.08 1013.7 1717.53 1013.7 1713.6C1013.7 1709.04 1012.17 1705.37 1009.13 1702.58C1006.22 1699.79 1002.35 1697.57 997.54 1695.93C992.852 1694.15 987.657 1692.63 981.955 1691.37C976.253 1690.1 970.488 1688.64 964.66 1686.99C958.958 1685.22 953.7 1683 948.885 1680.34C944.197 1677.68 940.396 1674.13 937.481 1669.7C934.567 1665.14 933.11 1659.31 933.11 1652.21C933.11 1645.37 934.884 1639.1 938.432 1633.4C942.106 1627.57 947.681 1622.94 955.157 1619.52C962.759 1615.98 972.389 1614.2 984.046 1614.2C991.775 1614.2 999.441 1615.22 1007.04 1617.24C1014.65 1619.27 1021.23 1622.18 1026.81 1625.99L1020.54 1641.19C1014.84 1637.39 1008.82 1634.66 1002.48 1633.02C996.146 1631.24 990.001 1630.36 984.046 1630.36C976.57 1630.36 970.425 1631.31 965.61 1633.21C960.795 1635.11 957.247 1637.64 954.967 1640.81C952.813 1643.98 951.736 1647.53 951.736 1651.45C951.736 1656.14 953.193 1659.88 956.107 1662.67C959.148 1665.45 963.013 1667.67 967.701 1669.32C972.516 1670.97 977.774 1672.49 983.476 1673.88C989.177 1675.15 994.879 1676.6 1000.58 1678.25C1006.41 1679.9 1011.67 1682.05 1016.36 1684.71C1021.17 1687.37 1025.04 1690.92 1027.95 1695.36C1030.86 1699.79 1032.32 1705.49 1032.32 1712.46C1032.32 1719.18 1030.48 1725.45 1026.81 1731.28C1023.13 1736.98 1017.43 1741.6 1009.7 1745.15C1002.1 1748.57 992.472 1750.28 980.815 1750.28ZM1111.13 1748.76V1615.72H1167.2C1181.39 1615.72 1193.87 1618.51 1204.64 1624.08C1215.53 1629.66 1223.96 1637.45 1229.92 1647.46C1236 1657.47 1239.04 1669.07 1239.04 1682.24C1239.04 1695.42 1236 1707.01 1229.92 1717.02C1223.96 1727.03 1215.53 1734.83 1204.64 1740.4C1193.87 1745.98 1181.39 1748.76 1167.2 1748.76H1111.13ZM1130.13 1732.23H1166.06C1177.08 1732.23 1186.58 1730.14 1194.56 1725.96C1202.67 1721.78 1208.95 1715.95 1213.38 1708.47C1217.82 1700.87 1220.03 1692.13 1220.03 1682.24C1220.03 1672.23 1217.82 1663.49 1213.38 1656.01C1208.95 1648.54 1202.67 1642.71 1194.56 1638.53C1186.58 1634.35 1177.08 1632.26 1166.06 1632.26H1130.13V1732.23ZM1268.15 1748.76V1615.72H1287.16V1748.76H1268.15ZM1387.05 1750.28C1376.78 1750.28 1367.34 1748.64 1358.73 1745.34C1350.11 1741.92 1342.64 1737.17 1336.3 1731.09C1329.97 1724.88 1325.02 1717.66 1321.48 1709.42C1317.93 1701.19 1316.15 1692.13 1316.15 1682.24C1316.15 1672.36 1317.93 1663.3 1321.48 1655.06C1325.02 1646.83 1329.97 1639.67 1336.3 1633.59C1342.76 1627.38 1350.3 1622.63 1358.92 1619.33C1367.53 1615.91 1377.04 1614.2 1387.43 1614.2C1397.94 1614.2 1407.57 1615.91 1416.32 1619.33C1425.06 1622.75 1432.47 1627.89 1438.55 1634.73L1426.77 1646.51C1421.32 1641.19 1415.37 1637.33 1408.9 1634.92C1402.57 1632.38 1395.66 1631.12 1388.19 1631.12C1380.58 1631.12 1373.49 1632.38 1366.9 1634.92C1360.44 1637.45 1354.8 1641 1349.98 1645.56C1345.3 1650.12 1341.62 1655.57 1338.96 1661.91C1336.43 1668.12 1335.16 1674.89 1335.16 1682.24C1335.16 1689.47 1336.43 1696.24 1338.96 1702.58C1341.62 1708.79 1345.3 1714.24 1349.98 1718.92C1354.8 1723.49 1360.44 1727.03 1366.9 1729.57C1373.36 1732.1 1380.39 1733.37 1388 1733.37C1395.09 1733.37 1401.87 1732.29 1408.33 1730.14C1414.92 1727.86 1421 1724.12 1426.58 1718.92L1437.41 1733.37C1430.82 1738.94 1423.09 1743.19 1414.22 1746.1C1405.48 1748.89 1396.42 1750.28 1387.05 1750.28ZM1419.17 1730.9V1681.48H1437.41V1733.37L1419.17 1730.9ZM1473.8 1748.76V1615.72H1492.81V1748.76H1473.8ZM1559.06 1748.76V1632.26H1513.44V1615.72H1623.49V1632.26H1577.87V1748.76H1559.06ZM1617.36 1748.76L1677.61 1615.72H1696.42L1756.86 1748.76H1736.91L1683.12 1626.37H1690.72L1636.93 1748.76H1617.36ZM1643.02 1715.5L1648.15 1700.3H1723.03L1728.54 1715.5H1643.02ZM1776.71 1748.76V1615.72H1795.71V1748.76H1776.71ZM1874.32 1750.28C1864.18 1750.28 1854.49 1748.76 1845.24 1745.72C1835.99 1742.56 1828.7 1738.5 1823.38 1733.56L1830.41 1718.73C1835.48 1723.17 1841.94 1726.84 1849.8 1729.76C1857.66 1732.67 1865.83 1734.13 1874.32 1734.13C1882.05 1734.13 1888.32 1733.24 1893.13 1731.47C1897.95 1729.69 1901.5 1727.29 1903.78 1724.25C1906.06 1721.08 1907.2 1717.53 1907.2 1713.6C1907.2 1709.04 1905.68 1705.37 1902.64 1702.58C1899.72 1699.79 1895.86 1697.57 1891.04 1695.93C1886.35 1694.15 1881.16 1692.63 1875.46 1691.37C1869.76 1690.1 1863.99 1688.64 1858.16 1686.99C1852.46 1685.22 1847.2 1683 1842.39 1680.34C1837.7 1677.68 1833.9 1674.13 1830.98 1669.7C1828.07 1665.14 1826.61 1659.31 1826.61 1652.21C1826.61 1645.37 1828.39 1639.1 1831.93 1633.4C1835.61 1627.57 1841.18 1622.94 1848.66 1619.52C1856.26 1615.98 1865.89 1614.2 1877.55 1614.2C1885.28 1614.2 1892.94 1615.22 1900.55 1617.24C1908.15 1619.27 1914.74 1622.18 1920.31 1625.99L1914.04 1641.19C1908.34 1637.39 1902.32 1634.66 1895.98 1633.02C1889.65 1631.24 1883.5 1630.36 1877.55 1630.36C1870.07 1630.36 1863.93 1631.31 1859.11 1633.21C1854.3 1635.11 1850.75 1637.64 1848.47 1640.81C1846.32 1643.98 1845.24 1647.53 1845.24 1651.45C1845.24 1656.14 1846.7 1659.88 1849.61 1662.67C1852.65 1665.45 1856.52 1667.67 1861.2 1669.32C1866.02 1670.97 1871.28 1672.49 1876.98 1673.88C1882.68 1675.15 1888.38 1676.6 1894.08 1678.25C1899.91 1679.9 1905.17 1682.05 1909.86 1684.71C1914.67 1687.37 1918.54 1690.92 1921.45 1695.36C1924.37 1699.79 1925.82 1705.49 1925.82 1712.46C1925.82 1719.18 1923.99 1725.45 1920.31 1731.28C1916.64 1736.98 1910.94 1741.6 1903.21 1745.15C1895.6 1748.57 1885.97 1750.28 1874.32 1750.28ZM2021.93 1673.12H2090.35V1689.28H2021.93V1673.12ZM2023.64 1732.23H2101.18V1748.76H2004.63V1615.72H2098.52V1632.26H2023.64V1732.23ZM20.1428 1980.76V1847.72H35.7277L95.4063 1948.26H87.0437L145.962 1847.72H161.547L161.737 1980.76H143.491L143.301 1876.42H147.673L95.2163 1964.61H86.4735L33.637 1876.42H38.3885V1980.76H20.1428ZM201.664 1980.76V1847.72H220.67V1980.76H201.664ZM260.501 1980.76V1847.72H276.086L364.084 1957.01H355.911V1847.72H374.917V1980.76H359.332L271.335 1871.48H279.507V1980.76H260.501ZM414.739 1980.76V1847.72H433.745V1980.76H414.739ZM512.348 1982.28C502.211 1982.28 492.518 1980.76 483.269 1977.72C474.019 1974.56 466.734 1970.5 461.412 1965.56L468.444 1950.73C473.512 1955.17 479.974 1958.84 487.83 1961.76C495.686 1964.67 503.859 1966.13 512.348 1966.13C520.077 1966.13 526.349 1965.24 531.164 1963.47C535.979 1961.69 539.526 1959.29 541.807 1956.25C544.088 1953.08 545.228 1949.53 545.228 1945.6C545.228 1941.04 543.708 1937.37 540.667 1934.58C537.752 1931.79 533.888 1929.57 529.073 1927.93C524.385 1926.15 519.19 1924.63 513.488 1923.37C507.786 1922.1 502.021 1920.64 496.193 1918.99C490.491 1917.22 485.233 1915 480.418 1912.34C475.73 1909.68 471.929 1906.13 469.014 1901.7C466.1 1897.14 464.643 1891.31 464.643 1884.21C464.643 1877.37 466.417 1871.1 469.965 1865.4C473.639 1859.57 479.214 1854.94 486.69 1851.52C494.292 1847.98 503.922 1846.2 515.579 1846.2C523.308 1846.2 530.974 1847.22 538.576 1849.24C546.178 1851.27 552.767 1854.18 558.342 1857.99L552.07 1873.19C546.369 1869.39 540.35 1866.66 534.015 1865.02C527.679 1863.24 521.534 1862.36 515.579 1862.36C508.103 1862.36 501.958 1863.31 497.143 1865.21C492.328 1867.11 488.78 1869.64 486.5 1872.81C484.346 1875.98 483.269 1879.53 483.269 1883.45C483.269 1888.14 484.726 1891.88 487.64 1894.67C490.681 1897.45 494.546 1899.67 499.234 1901.32C504.049 1902.97 509.307 1904.49 515.009 1905.88C520.71 1907.15 526.412 1908.6 532.114 1910.25C537.943 1911.9 543.201 1914.05 547.889 1916.71C552.704 1919.37 556.568 1922.92 559.483 1927.36C562.397 1931.79 563.854 1937.49 563.854 1944.46C563.854 1951.18 562.017 1957.45 558.342 1963.28C554.668 1968.98 548.966 1973.6 541.237 1977.15C533.635 1980.57 524.005 1982.28 512.348 1982.28ZM616.183 1980.76V1864.26H570.568V1847.72H680.613V1864.26H634.999V1980.76H616.183ZM718.608 1905.12H787.03V1921.28H718.608V1905.12ZM720.319 1964.23H797.863V1980.76H701.313V1847.72H795.202V1864.26H720.319V1964.23ZM734.193 1836.89L760.041 1812.18H783.229L751.299 1836.89H734.193ZM828.638 1980.76V1847.72H880.524C892.181 1847.72 902.128 1849.56 910.364 1853.23C918.6 1856.91 924.935 1862.23 929.37 1869.2C933.804 1876.17 936.022 1884.47 936.022 1894.1C936.022 1903.73 933.804 1912.03 929.37 1918.99C924.935 1925.84 918.6 1931.09 910.364 1934.77C902.128 1938.44 892.181 1940.28 880.524 1940.28H839.091L847.644 1931.54V1980.76H828.638ZM917.586 1980.76L883.755 1932.49H904.092L938.302 1980.76H917.586ZM847.644 1933.44L839.091 1924.13H879.954C892.118 1924.13 901.304 1921.53 907.513 1916.33C913.848 1911.01 917.016 1903.6 917.016 1894.1C917.016 1884.59 913.848 1877.24 907.513 1872.05C901.304 1866.85 892.118 1864.26 879.954 1864.26H839.091L847.644 1854.75V1933.44ZM966.728 1980.76V1847.72H985.734V1980.76H966.728ZM1085.62 1982.28C1075.49 1982.28 1066.05 1980.57 1057.3 1977.15C1048.69 1973.73 1041.21 1968.98 1034.88 1962.9C1028.54 1956.69 1023.6 1949.47 1020.05 1941.23C1016.51 1933 1014.73 1924 1014.73 1914.24C1014.73 1904.49 1016.51 1895.49 1020.05 1887.25C1023.6 1879.02 1028.54 1871.86 1034.88 1865.78C1041.21 1859.57 1048.69 1854.75 1057.3 1851.33C1065.92 1847.91 1075.36 1846.2 1085.62 1846.2C1095.76 1846.2 1105.07 1847.91 1113.56 1851.33C1122.18 1854.63 1129.65 1859.38 1135.99 1865.59C1142.45 1871.67 1147.39 1878.83 1150.81 1887.06C1154.36 1895.3 1156.14 1904.36 1156.14 1914.24C1156.14 1924.13 1154.36 1933.19 1150.81 1941.42C1147.39 1949.66 1142.45 1956.88 1135.99 1963.09C1129.65 1969.17 1122.18 1973.92 1113.56 1977.34C1105.07 1980.64 1095.76 1982.28 1085.62 1982.28ZM1085.62 1965.37C1092.97 1965.37 1099.75 1964.1 1105.96 1961.57C1112.3 1959.03 1117.74 1955.49 1122.31 1950.92C1126.99 1946.24 1130.6 1940.79 1133.14 1934.58C1135.8 1928.37 1137.13 1921.59 1137.13 1914.24C1137.13 1906.89 1135.8 1900.12 1133.14 1893.91C1130.6 1887.7 1126.99 1882.31 1122.31 1877.75C1117.74 1873.06 1112.3 1869.45 1105.96 1866.92C1099.75 1864.38 1092.97 1863.12 1085.62 1863.12C1078.15 1863.12 1071.24 1864.38 1064.91 1866.92C1058.7 1869.45 1053.25 1873.06 1048.56 1877.75C1043.87 1882.31 1040.2 1887.7 1037.54 1893.91C1035 1900.12 1033.74 1906.89 1033.74 1914.24C1033.74 1921.59 1035 1928.37 1037.54 1934.58C1040.2 1940.79 1043.87 1946.24 1048.56 1950.92C1053.25 1955.49 1058.7 1959.03 1064.91 1961.57C1071.24 1964.1 1078.15 1965.37 1085.62 1965.37ZM1236.23 1980.76V1847.72H1288.11C1299.77 1847.72 1309.72 1849.56 1317.95 1853.23C1326.19 1856.91 1332.52 1862.23 1336.96 1869.2C1341.39 1876.17 1343.61 1884.47 1343.61 1894.1C1343.61 1903.73 1341.39 1912.03 1336.96 1918.99C1332.52 1925.84 1326.19 1931.16 1317.95 1934.96C1309.72 1938.63 1299.77 1940.47 1288.11 1940.47H1246.68L1255.23 1931.54V1980.76H1236.23ZM1255.23 1933.44L1246.68 1923.94H1287.54C1299.71 1923.94 1308.89 1921.34 1315.1 1916.14C1321.44 1910.95 1324.6 1903.6 1324.6 1894.1C1324.6 1884.59 1321.44 1877.24 1315.1 1872.05C1308.89 1866.85 1299.71 1864.26 1287.54 1864.26H1246.68L1255.23 1854.75V1933.44ZM1427.02 1982.28C1409.54 1982.28 1395.79 1977.28 1385.78 1967.27C1375.77 1957.26 1370.76 1942.63 1370.76 1923.37V1847.72H1389.77V1922.61C1389.77 1937.43 1393 1948.26 1399.46 1955.11C1406.05 1961.95 1415.3 1965.37 1427.21 1965.37C1439.25 1965.37 1448.5 1961.95 1454.96 1955.11C1461.55 1948.26 1464.84 1937.43 1464.84 1922.61V1847.72H1483.28V1923.37C1483.28 1942.63 1478.27 1957.26 1468.26 1967.27C1458.38 1977.28 1444.63 1982.28 1427.02 1982.28ZM1412.96 1836.89L1438.8 1812.18H1461.99L1430.06 1836.89H1412.96ZM1522.24 1980.76V1847.72H1581.92C1597.25 1847.72 1609.04 1850.83 1617.27 1857.03C1625.51 1863.12 1629.63 1871.48 1629.63 1882.12C1629.63 1889.35 1627.98 1895.43 1624.69 1900.37C1621.52 1905.31 1617.21 1909.11 1611.76 1911.77C1606.31 1914.43 1600.42 1915.76 1594.09 1915.76L1597.51 1910.06C1605.11 1910.06 1611.83 1911.39 1617.65 1914.05C1623.48 1916.71 1628.11 1920.64 1631.53 1925.84C1634.95 1930.9 1636.66 1937.24 1636.66 1944.84C1636.66 1956.25 1632.35 1965.12 1623.74 1971.45C1615.25 1977.66 1602.58 1980.76 1585.72 1980.76H1522.24ZM1541.25 1965.37H1584.96C1595.48 1965.37 1603.53 1963.59 1609.1 1960.05C1614.68 1956.5 1617.46 1950.92 1617.46 1943.32C1617.46 1935.59 1614.68 1929.95 1609.1 1926.41C1603.53 1922.86 1595.48 1921.08 1584.96 1921.08H1539.54V1905.69H1580.21C1589.84 1905.69 1597.32 1903.92 1602.64 1900.37C1607.96 1896.82 1610.62 1891.5 1610.62 1884.4C1610.62 1877.31 1607.96 1871.99 1602.64 1868.44C1597.32 1864.89 1589.84 1863.12 1580.21 1863.12H1541.25V1965.37ZM1666.09 1980.76V1847.72H1685.09V1964.23H1757.13V1980.76H1666.09ZM1778.94 1980.76V1847.72H1797.94V1980.76H1778.94ZM1897.26 1982.28C1887.12 1982.28 1877.75 1980.64 1869.13 1977.34C1860.64 1973.92 1853.23 1969.17 1846.9 1963.09C1840.69 1956.88 1835.81 1949.66 1832.26 1941.42C1828.71 1933.19 1826.94 1924.13 1826.94 1914.24C1826.94 1904.36 1828.71 1895.3 1832.26 1887.06C1835.81 1878.83 1840.75 1871.67 1847.09 1865.59C1853.42 1859.38 1860.83 1854.63 1869.32 1851.33C1877.94 1847.91 1887.31 1846.2 1897.45 1846.2C1907.71 1846.2 1917.15 1847.98 1925.77 1851.52C1934.51 1854.94 1941.92 1860.08 1948.01 1866.92L1935.65 1878.89C1930.58 1873.57 1924.88 1869.64 1918.55 1867.11C1912.21 1864.45 1905.43 1863.12 1898.21 1863.12C1890.74 1863.12 1883.77 1864.38 1877.3 1866.92C1870.97 1869.45 1865.46 1873 1860.77 1877.56C1856.08 1882.12 1852.41 1887.57 1849.75 1893.91C1847.21 1900.12 1845.94 1906.89 1845.94 1914.24C1845.94 1921.59 1847.21 1928.43 1849.75 1934.77C1852.41 1940.98 1856.08 1946.36 1860.77 1950.92C1865.46 1955.49 1870.97 1959.03 1877.3 1961.57C1883.77 1964.1 1890.74 1965.37 1898.21 1965.37C1905.43 1965.37 1912.21 1964.1 1918.55 1961.57C1924.88 1958.91 1930.58 1954.85 1935.65 1949.4L1948.01 1961.38C1941.92 1968.22 1934.51 1973.41 1925.77 1976.96C1917.15 1980.51 1907.65 1982.28 1897.26 1982.28ZM2032.39 1982.28C2022.26 1982.28 2012.82 1980.57 2004.08 1977.15C1995.46 1973.73 1987.98 1968.98 1981.65 1962.9C1975.31 1956.69 1970.37 1949.47 1966.82 1941.23C1963.28 1933 1961.5 1924 1961.5 1914.24C1961.5 1904.49 1963.28 1895.49 1966.82 1887.25C1970.37 1879.02 1975.31 1871.86 1981.65 1865.78C1987.98 1859.57 1995.46 1854.75 2004.08 1851.33C2012.69 1847.91 2022.13 1846.2 2032.39 1846.2C2042.53 1846.2 2051.84 1847.91 2060.33 1851.33C2068.95 1854.63 2076.43 1859.38 2082.76 1865.59C2089.22 1871.67 2094.16 1878.83 2097.59 1887.06C2101.13 1895.3 2102.91 1904.36 2102.91 1914.24C2102.91 1924.13 2101.13 1933.19 2097.59 1941.42C2094.16 1949.66 2089.22 1956.88 2082.76 1963.09C2076.43 1969.17 2068.95 1973.92 2060.33 1977.34C2051.84 1980.64 2042.53 1982.28 2032.39 1982.28ZM2032.39 1965.37C2039.74 1965.37 2046.52 1964.1 2052.73 1961.57C2059.07 1959.03 2064.51 1955.49 2069.08 1950.92C2073.76 1946.24 2077.38 1940.79 2079.91 1934.58C2082.57 1928.37 2083.9 1921.59 2083.9 1914.24C2083.9 1906.89 2082.57 1900.12 2079.91 1893.91C2077.38 1887.7 2073.76 1882.31 2069.08 1877.75C2064.51 1873.06 2059.07 1869.45 2052.73 1866.92C2046.52 1864.38 2039.74 1863.12 2032.39 1863.12C2024.92 1863.12 2018.01 1864.38 2011.68 1866.92C2005.47 1869.45 2000.02 1873.06 1995.33 1877.75C1990.64 1882.31 1986.97 1887.7 1984.31 1893.91C1981.78 1900.12 1980.51 1906.89 1980.51 1914.24C1980.51 1921.59 1981.78 1928.37 1984.31 1934.58C1986.97 1940.79 1990.64 1946.24 1995.33 1950.92C2000.02 1955.49 2005.47 1959.03 2011.68 1961.57C2018.01 1964.1 2024.92 1965.37 2032.39 1965.37ZM759.779 2212.76V2079.72H775.364L863.361 2189.01H855.189V2079.72H874.194V2212.76H858.61L770.612 2103.48H778.785V2212.76H759.779ZM893.87 2212.76L954.119 2079.72H972.935L1033.37 2212.76H1013.42L959.631 2090.37H967.233L913.446 2212.76H893.87ZM919.528 2179.5L924.66 2164.3H999.543L1005.05 2179.5H919.528ZM1091.99 2214.28C1081.86 2214.28 1072.16 2212.76 1062.91 2209.72C1053.66 2206.56 1046.38 2202.5 1041.06 2197.56L1048.09 2182.73C1053.16 2187.17 1059.62 2190.84 1067.47 2193.76C1075.33 2196.67 1083.5 2198.13 1091.99 2198.13C1099.72 2198.13 1105.99 2197.24 1110.81 2195.47C1115.62 2193.69 1119.17 2191.29 1121.45 2188.25C1123.73 2185.08 1124.87 2181.53 1124.87 2177.6C1124.87 2173.04 1123.35 2169.37 1120.31 2166.58C1117.4 2163.79 1113.53 2161.57 1108.72 2159.93C1104.03 2158.15 1098.83 2156.63 1093.13 2155.37C1087.43 2154.1 1081.67 2152.64 1075.84 2150.99C1070.14 2149.22 1064.88 2147 1060.06 2144.34C1055.37 2141.68 1051.57 2138.13 1048.66 2133.7C1045.74 2129.14 1044.29 2123.31 1044.29 2116.21C1044.29 2109.37 1046.06 2103.1 1049.61 2097.4C1053.28 2091.57 1058.86 2086.94 1066.33 2083.52C1073.94 2079.98 1083.57 2078.2 1095.22 2078.2C1102.95 2078.2 1110.62 2079.22 1118.22 2081.24C1125.82 2083.27 1132.41 2086.18 1137.99 2089.99L1131.71 2105.19C1126.01 2101.39 1119.99 2098.66 1113.66 2097.02C1107.32 2095.24 1101.18 2094.36 1095.22 2094.36C1087.75 2094.36 1081.6 2095.31 1076.79 2097.21C1071.97 2099.11 1068.42 2101.64 1066.14 2104.81C1063.99 2107.98 1062.91 2111.53 1062.91 2115.45C1062.91 2120.14 1064.37 2123.88 1067.28 2126.67C1070.33 2129.45 1074.19 2131.67 1078.88 2133.32C1083.69 2134.97 1088.95 2136.49 1094.65 2137.88C1100.35 2139.15 1106.06 2140.6 1111.76 2142.25C1117.59 2143.9 1122.85 2146.05 1127.53 2148.71C1132.35 2151.37 1136.21 2154.92 1139.13 2159.36C1142.04 2163.79 1143.5 2169.49 1143.5 2176.46C1143.5 2183.18 1141.66 2189.45 1137.99 2195.28C1134.31 2200.98 1128.61 2205.6 1120.88 2209.15C1113.28 2212.57 1103.65 2214.28 1091.99 2214.28ZM1239.6 2137.12H1308.02V2153.28H1239.6V2137.12ZM1241.31 2196.23H1318.86V2212.76H1222.31V2079.72H1316.2V2096.26H1241.31V2196.23ZM1388.4 2214.28C1378.27 2214.28 1368.57 2212.76 1359.32 2209.72C1350.07 2206.56 1342.79 2202.5 1337.47 2197.56L1344.5 2182.73C1349.57 2187.17 1356.03 2190.84 1363.89 2193.76C1371.74 2196.67 1379.91 2198.13 1388.4 2198.13C1396.13 2198.13 1402.4 2197.24 1407.22 2195.47C1412.03 2193.69 1415.58 2191.29 1417.86 2188.25C1420.14 2185.08 1421.28 2181.53 1421.28 2177.6C1421.28 2173.04 1419.76 2169.37 1416.72 2166.58C1413.81 2163.79 1409.94 2161.57 1405.13 2159.93C1400.44 2158.15 1395.25 2156.63 1389.54 2155.37C1383.84 2154.1 1378.08 2152.64 1372.25 2150.99C1366.55 2149.22 1361.29 2147 1356.47 2144.34C1351.79 2141.68 1347.98 2138.13 1345.07 2133.7C1342.16 2129.14 1340.7 2123.31 1340.7 2116.21C1340.7 2109.37 1342.47 2103.1 1346.02 2097.4C1349.69 2091.57 1355.27 2086.94 1362.75 2083.52C1370.35 2079.98 1379.98 2078.2 1391.63 2078.2C1399.36 2078.2 1407.03 2079.22 1414.63 2081.24C1422.23 2083.27 1428.82 2086.18 1434.4 2089.99L1428.13 2105.19C1422.42 2101.39 1416.41 2098.66 1410.07 2097.02C1403.73 2095.24 1397.59 2094.36 1391.63 2094.36C1384.16 2094.36 1378.01 2095.31 1373.2 2097.21C1368.38 2099.11 1364.84 2101.64 1362.56 2104.81C1360.4 2107.98 1359.32 2111.53 1359.32 2115.45C1359.32 2120.14 1360.78 2123.88 1363.7 2126.67C1366.74 2129.45 1370.6 2131.67 1375.29 2133.32C1380.1 2134.97 1385.36 2136.49 1391.06 2137.88C1396.77 2139.15 1402.47 2140.6 1408.17 2142.25C1414 2143.9 1419.26 2146.05 1423.94 2148.71C1428.76 2151.37 1432.62 2154.92 1435.54 2159.36C1438.45 2163.79 1439.91 2169.49 1439.91 2176.46C1439.91 2183.18 1438.07 2189.45 1434.4 2195.28C1430.72 2200.98 1425.02 2205.6 1417.29 2209.15C1409.69 2212.57 1400.06 2214.28 1388.4 2214.28ZM1527.16 2214.28C1517.03 2214.28 1507.65 2212.64 1499.04 2209.34C1490.55 2205.92 1483.13 2201.17 1476.8 2195.09C1470.59 2188.88 1465.71 2181.66 1462.16 2173.42C1458.62 2165.19 1456.84 2156.13 1456.84 2146.24C1456.84 2136.36 1458.62 2127.3 1462.16 2119.06C1465.71 2110.83 1470.65 2103.67 1476.99 2097.59C1483.32 2091.38 1490.74 2086.63 1499.23 2083.33C1507.84 2079.91 1517.22 2078.2 1527.35 2078.2C1537.62 2078.2 1547.06 2079.98 1555.67 2083.52C1564.42 2086.94 1571.83 2092.08 1577.91 2098.92L1565.56 2110.89C1560.49 2105.57 1554.79 2101.64 1548.45 2099.11C1542.12 2096.45 1535.34 2095.12 1528.11 2095.12C1520.64 2095.12 1513.67 2096.38 1507.21 2098.92C1500.87 2101.45 1495.36 2105 1490.67 2109.56C1485.99 2114.12 1482.31 2119.57 1479.65 2125.91C1477.12 2132.12 1475.85 2138.89 1475.85 2146.24C1475.85 2153.59 1477.12 2160.43 1479.65 2166.77C1482.31 2172.98 1485.99 2178.36 1490.67 2182.92C1495.36 2187.49 1500.87 2191.03 1507.21 2193.57C1513.67 2196.1 1520.64 2197.37 1528.11 2197.37C1535.34 2197.37 1542.12 2196.1 1548.45 2193.57C1554.79 2190.91 1560.49 2186.85 1565.56 2181.4L1577.91 2193.38C1571.83 2200.22 1564.42 2205.41 1555.67 2208.96C1547.06 2212.51 1537.55 2214.28 1527.16 2214.28ZM1662.3 2214.28C1652.16 2214.28 1642.72 2212.57 1633.98 2209.15C1625.36 2205.73 1617.89 2200.98 1611.55 2194.9C1605.22 2188.69 1600.28 2181.47 1596.73 2173.23C1593.18 2165 1591.41 2156 1591.41 2146.24C1591.41 2136.49 1593.18 2127.49 1596.73 2119.25C1600.28 2111.02 1605.22 2103.86 1611.55 2097.78C1617.89 2091.57 1625.36 2086.75 1633.98 2083.33C1642.6 2079.91 1652.04 2078.2 1662.3 2078.2C1672.44 2078.2 1681.75 2079.91 1690.24 2083.33C1698.85 2086.63 1706.33 2091.38 1712.66 2097.59C1719.13 2103.67 1724.07 2110.83 1727.49 2119.06C1731.04 2127.3 1732.81 2136.36 1732.81 2146.24C1732.81 2156.13 1731.04 2165.19 1727.49 2173.42C1724.07 2181.66 1719.13 2188.88 1712.66 2195.09C1706.33 2201.17 1698.85 2205.92 1690.24 2209.34C1681.75 2212.64 1672.44 2214.28 1662.3 2214.28ZM1662.3 2197.37C1669.65 2197.37 1676.43 2196.1 1682.63 2193.57C1688.97 2191.03 1694.42 2187.49 1698.98 2182.92C1703.67 2178.24 1707.28 2172.79 1709.81 2166.58C1712.47 2160.37 1713.8 2153.59 1713.8 2146.24C1713.8 2138.89 1712.47 2132.12 1709.81 2125.91C1707.28 2119.7 1703.67 2114.31 1698.98 2109.75C1694.42 2105.06 1688.97 2101.45 1682.63 2098.92C1676.43 2096.38 1669.65 2095.12 1662.3 2095.12C1654.82 2095.12 1647.92 2096.38 1641.58 2098.92C1635.37 2101.45 1629.93 2105.06 1625.24 2109.75C1620.55 2114.31 1616.87 2119.7 1614.21 2125.91C1611.68 2132.12 1610.41 2138.89 1610.41 2146.24C1610.41 2153.59 1611.68 2160.37 1614.21 2166.58C1616.87 2172.79 1620.55 2178.24 1625.24 2182.92C1629.93 2187.49 1635.37 2191.03 1641.58 2193.57C1647.92 2196.1 1654.82 2197.37 1662.3 2197.37ZM1761.86 2212.76V2079.72H1780.87V2196.23H1852.9V2212.76H1761.86ZM1854.56 2212.76L1914.81 2079.72H1933.63L1994.07 2212.76H1974.11L1920.32 2090.37H1927.92L1874.14 2212.76H1854.56ZM1880.22 2179.5L1885.35 2164.3H1960.23L1965.75 2179.5H1880.22ZM2052.68 2214.28C2042.55 2214.28 2032.85 2212.76 2023.6 2209.72C2014.35 2206.56 2007.07 2202.5 2001.75 2197.56L2008.78 2182.73C2013.85 2187.17 2020.31 2190.84 2028.17 2193.76C2036.02 2196.67 2044.19 2198.13 2052.68 2198.13C2060.41 2198.13 2066.68 2197.24 2071.5 2195.47C2076.31 2193.69 2079.86 2191.29 2082.14 2188.25C2084.42 2185.08 2085.56 2181.53 2085.56 2177.6C2085.56 2173.04 2084.04 2169.37 2081 2166.58C2078.09 2163.79 2074.22 2161.57 2069.41 2159.93C2064.72 2158.15 2059.53 2156.63 2053.82 2155.37C2048.12 2154.1 2042.36 2152.64 2036.53 2150.99C2030.83 2149.22 2025.57 2147 2020.75 2144.34C2016.07 2141.68 2012.26 2138.13 2009.35 2133.7C2006.44 2129.14 2004.98 2123.31 2004.98 2116.21C2004.98 2109.37 2006.75 2103.1 2010.3 2097.4C2013.97 2091.57 2019.55 2086.94 2027.03 2083.52C2034.63 2079.98 2044.26 2078.2 2055.91 2078.2C2063.64 2078.2 2071.31 2079.22 2078.91 2081.24C2086.51 2083.27 2093.1 2086.18 2098.68 2089.99L2092.41 2105.19C2086.7 2101.39 2080.69 2098.66 2074.35 2097.02C2068.02 2095.24 2061.87 2094.36 2055.91 2094.36C2048.44 2094.36 2042.29 2095.31 2037.48 2097.21C2032.66 2099.11 2029.12 2101.64 2026.84 2104.81C2024.68 2107.98 2023.6 2111.53 2023.6 2115.45C2023.6 2120.14 2025.06 2123.88 2027.98 2126.67C2031.02 2129.45 2034.88 2131.67 2039.57 2133.32C2044.38 2134.97 2049.64 2136.49 2055.34 2137.88C2061.05 2139.15 2066.75 2140.6 2072.45 2142.25C2078.28 2143.9 2083.54 2146.05 2088.22 2148.71C2093.04 2151.37 2096.9 2154.92 2099.82 2159.36C2102.73 2163.79 2104.19 2169.49 2104.19 2176.46C2104.19 2183.18 2102.35 2189.45 2098.68 2195.28C2095 2200.98 2089.3 2205.6 2081.57 2209.15C2073.97 2212.57 2064.34 2214.28 2052.68 2214.28Z" fill="#5A5A5A"/>
<path d="M2941.11 10.0127C2921.96 9.75998 2902.95 13.2813 2885.16 20.3756L2993.21 291.269C3011 284.175 3027.22 273.646 3040.93 260.285C3054.65 246.924 3065.61 230.991 3073.17 213.397C3080.73 195.803 3084.75 176.892 3085 157.744C3085.25 138.595 3081.73 119.585 3074.64 101.797C3067.55 84.0112 3057.01 67.7986 3043.65 54.081C3030.29 40.3623 3014.36 29.4097 2996.76 21.8484C2979.17 14.2872 2960.26 10.2654 2941.11 10.0127Z" fill="#FF024B"/>
<path d="M2436.8 494.267C2449.27 479.735 2464.48 467.802 2481.56 459.15L2613.33 719.331C2596.25 727.984 2577.63 733.187 2558.53 734.643C2539.44 736.099 2520.25 733.78 2502.05 727.818C2483.85 721.856 2467 712.369 2452.47 699.896C2437.94 687.424 2426.01 672.212 2417.35 655.128C2408.7 638.045 2403.51 619.423 2402.05 600.33C2400.59 581.235 2402.91 562.041 2408.87 543.843C2414.84 525.644 2424.32 508.798 2436.8 494.267Z" fill="#FF4A97"/>
<path d="M3396.45 1580.47L3396.99 1580.11L3397.45 1579.65C3399.25 1577.84 3401.14 1575.33 3401.59 1572.12C3402.08 1568.74 3400.83 1565.86 3398.94 1563.74C3387.38 1547.28 3371.91 1534.77 3352.7 1526.21C3333.41 1516.94 3312.38 1512.34 3289.73 1512.34C3252.24 1512.34 3220.66 1523.71 3195.49 1546.72C3170.3 1569.75 3157.64 1598.73 3157.64 1633.2C3157.64 1662.62 3163.25 1688.83 3174.66 1711.66L3174.7 1711.73L3174.74 1711.8C3186.57 1734.09 3200.56 1753.34 3216.72 1769.5C3232.58 1785.36 3256.91 1806.94 3289.61 1834.19C3324.24 1863.39 3350.24 1887.04 3367.69 1905.16L3367.78 1905.25L3367.87 1905.34C3385.7 1922.51 3401.3 1943.39 3414.62 1968.04C3427.67 1992.17 3434.25 2019.33 3434.25 2049.65C3434.25 2085.98 3421.37 2115.49 3395.59 2138.69C3370.5 2161.2 3337.14 2172.73 3294.83 2172.73C3249.37 2172.73 3212.26 2158.62 3182.99 2130.66C3153.79 2102.75 3138.73 2066.4 3138.06 2021.01C3138.05 2018.32 3137.37 2015.11 3134.87 2012.61C3132.36 2010.1 3129.13 2009.42 3126.42 2009.42H3097.84C3095.13 2009.42 3091.89 2010.1 3089.38 2012.61C3086.87 2015.12 3086.19 2018.36 3086.19 2021.07V2021.13L3086.19 2021.18C3086.89 2060.31 3096.34 2095.46 3114.66 2126.47C3132.93 2157.38 3157.57 2181.67 3188.51 2199.26L3188.59 2199.3L3188.66 2199.34C3220.32 2216.22 3255.76 2224.61 3294.83 2224.61C3331.12 2224.61 3363.81 2217.27 3392.74 2202.45C3421.63 2187.66 3444.32 2167.14 3460.63 2140.9C3477.66 2113.93 3486.12 2083.45 3486.12 2049.65C3486.12 2011.95 3478.09 1977.56 3461.92 1946.61C3446 1915.48 3426.91 1889.06 3404.59 1867.42C3383.28 1845.42 3355.88 1820.77 3322.45 1793.49C3292.61 1769.08 3270.3 1750.14 3255.46 1736.66C3241.68 1722.86 3230.56 1707.8 3222.07 1691.47C3213.76 1674.84 3209.51 1655.47 3209.51 1633.2C3209.51 1613.31 3216.87 1597.07 3231.78 1584.03C3246.73 1570.95 3265.87 1564.21 3289.73 1564.21C3320.07 1564.21 3341.69 1574.43 3355.87 1594.15L3356.18 1594.58L3356.55 1594.96C3358.36 1596.76 3360.87 1598.65 3364.08 1599.11C3367.42 1599.58 3370.28 1598.37 3372.39 1596.5L3396.45 1580.47Z" fill="#371BE4" stroke="#371BE4" stroke-width="13.0859"/>
<path d="M3034.89 2174.63H3034.79L3034.69 2174.63L3001.98 2175.67L3001.94 2175.68L3001.9 2175.68C2986.9 2176.36 2446.24 2177.4 2421.53 2177.41L2367.6 2176.48C2372.07 2053.23 2374.3 1956.18 2374.3 1846.96C2374.3 1733.83 2372.32 1629.35 2368.36 1533.53C2368.33 1530.92 2367.69 1527.83 2365.37 1525.39C2362.94 1522.85 2359.76 1522.12 2357.05 1522.12H2356.81L2356.57 1522.14L2329.03 1524.2C2326.37 1524.25 2323.32 1525.01 2320.98 1527.47C2318.61 1529.96 2317.99 1533.12 2317.99 1535.76V1535.89L2317.99 1536.02C2321.29 1615.69 2322.94 1720.02 2322.94 1849.04C2322.94 2007.17 2320.3 2117.65 2315.02 2220.9L2314.69 2227.39L2321.18 2227.58L2356.77 2228.62C2356.78 2228.62 2356.8 2228.62 2356.82 2228.62C2372.8 2229.32 2393.37 2229.66 2418.5 2229.66H2418.51L2418.52 2229.66L3002.21 2227.93L3002.3 2227.93L3002.39 2227.93L3035.01 2226.89C3037.37 2226.87 3040.25 2226.21 3042.47 2223.88C3044.48 2221.76 3046.2 2218.89 3046.2 2215.33V2186.19C3046.2 2183.55 3045.58 2180.39 3043.21 2177.9C3040.79 2175.36 3037.61 2174.63 3034.89 2174.63Z" fill="#371BE4" stroke="#371BE4" stroke-width="12.7067"/>
<path d="M3199.66 777.477H3199.6L3199.54 777.478C3132.59 778.817 3073.73 793.555 3023.13 821.889C2973.19 849.557 2934.35 888.406 2906.68 938.339L2906.67 938.368L2906.65 938.397C2879.65 988.354 2866.24 1045.92 2866.24 1110.9C2866.24 1128.32 2867.25 1146.71 2869.25 1166.07L2869.25 1166.09L2869.25 1166.12C2875.97 1225.93 2895.83 1278.85 2928.89 1324.73L2928.9 1324.75L2928.91 1324.77C2961.94 1369.93 3004.74 1404.95 3057.19 1429.83L3057.21 1429.84L3057.22 1429.85C3110.36 1454.74 3169.77 1467.12 3235.34 1467.12C3238.22 1467.12 3241.52 1466.64 3244.24 1464.7C3247.35 1462.47 3248.63 1459.13 3248.63 1455.81V1428.06C3248.63 1424.37 3246.98 1421.02 3243.67 1418.95C3240.85 1417.2 3237.45 1416.75 3234.35 1416.75C3177.01 1416.75 3125.76 1406 3080.46 1384.65C3035.12 1363.27 2998.31 1333.55 2969.9 1295.46C2942.19 1256.78 2925.38 1211.92 2919.54 1160.74C2917.59 1143.11 2916.61 1126.17 2916.61 1109.91C2916.61 1053.97 2927.99 1005.15 2950.53 963.277C2973.74 920.726 3006.24 887.915 3048.11 864.723C3090.65 841.524 3141.13 829.156 3199.74 827.846C3202.36 827.832 3205.46 827.159 3207.87 824.746C3210.31 822.309 3210.97 819.168 3210.97 816.537V788.786C3210.97 786.154 3210.31 783.014 3207.87 780.576C3205.43 778.139 3202.29 777.477 3199.66 777.477Z" fill="#371BE4" stroke="#371BE4" stroke-width="12.7067"/>
<path d="M2786.02 885.27C2786.47 882.131 2785.32 879.469 2783.64 877.554C2774.71 864.861 2762.77 855.221 2747.99 848.637C2733.14 841.504 2716.97 837.973 2699.59 837.973C2670.83 837.973 2646.49 846.706 2627.07 864.456C2607.63 882.23 2597.84 904.642 2597.84 931.226C2597.84 953.717 2602.13 973.832 2610.91 991.396L2610.95 991.471L2610.99 991.544C2620.02 1008.54 2630.7 1023.26 2643.07 1035.63C2655.13 1047.69 2673.59 1064.06 2698.33 1084.68C2724.52 1106.75 2744.13 1124.59 2757.27 1138.24L2757.36 1138.33L2757.45 1138.42C2770.79 1151.27 2782.48 1166.91 2792.49 1185.42C2802.2 1203.39 2807.12 1223.63 2807.12 1246.3C2807.12 1273.3 2797.57 1295.12 2778.47 1312.32C2759.89 1328.98 2735.12 1337.61 2703.45 1337.61C2669.46 1337.61 2641.86 1327.07 2620.09 1306.27C2598.39 1285.54 2587.16 1258.52 2586.66 1224.62C2586.65 1222.3 2586.05 1219.34 2583.71 1217C2581.35 1214.64 2578.36 1214.05 2576.03 1214.05H2554.41C2552.08 1214.05 2549.09 1214.64 2546.73 1217C2544.37 1219.36 2543.79 1222.34 2543.79 1224.67V1224.73L2543.79 1224.79C2544.32 1254.68 2551.54 1281.58 2565.58 1305.34C2579.56 1329 2598.43 1347.6 2622.12 1361.06L2622.19 1361.11L2622.27 1361.15C2646.51 1374.08 2673.62 1380.48 2703.45 1380.48C2731.16 1380.48 2756.17 1374.88 2778.35 1363.52C2800.48 1352.18 2817.9 1336.44 2830.43 1316.3C2843.5 1295.58 2849.99 1272.19 2849.99 1246.3C2849.99 1217.51 2843.85 1191.21 2831.47 1167.51C2819.36 1143.82 2804.81 1123.67 2787.78 1107.15C2771.59 1090.44 2750.81 1071.76 2725.5 1051.09C2702.95 1032.65 2686.11 1018.36 2674.92 1008.19C2664.63 997.883 2656.35 986.65 2650.02 974.488C2643.88 962.199 2640.71 947.836 2640.71 931.226C2640.71 916.694 2646.06 904.91 2656.94 895.388C2667.87 885.825 2681.9 880.844 2699.59 880.844C2722.09 880.844 2737.84 888.387 2748.16 902.74L2748.48 903.186L2748.87 903.575C2750.35 905.064 2752.6 906.798 2755.59 907.225C2758.69 907.668 2761.32 906.551 2763.23 904.907L2781.34 892.836L2781.9 892.465L2782.37 891.991C2783.86 890.502 2785.59 888.258 2786.02 885.27Z" fill="#371BE4" stroke="#371BE4" stroke-width="13.526"/>
<path d="M2363.29 1418.02C2365.76 1370.68 2368.23 1305.5 2370.7 1222.52C2407.19 1223.7 2434.88 1224.29 2453.73 1224.29H2486.44C2488.77 1224.29 2491.7 1223.86 2494.13 1221.91C2496.55 1219.97 2497.54 1217.32 2497.72 1214.83L2503.41 1190.18C2504.06 1188.5 2504.24 1186.61 2503.75 1184.68C2503.29 1182.83 2502.32 1181.35 2501.29 1180.22C2499.06 1177.14 2495.72 1174.92 2491.4 1174.92H2459.68C2430.14 1174.92 2400.61 1174.05 2371.07 1172.33C2371.61 1152.6 2371.88 1124.85 2371.88 1089.1C2371.88 1007.64 2369.98 921.153 2366.19 829.627C2405.23 828.438 2434.4 827.846 2453.73 827.846C2485.97 827.846 2533.77 829.163 2597.18 831.805L2597.31 831.811H2597.45C2599.47 831.811 2601.96 831.36 2604.08 829.695C2605.22 829.004 2606.33 828.051 2607.19 826.751C2608.09 825.409 2608.56 823.947 2608.71 822.496L2615.36 796.809C2616.04 795.097 2616.24 793.172 2615.75 791.209C2615.37 789.682 2614.64 788.409 2613.82 787.373C2613.15 785.944 2612.14 784.555 2610.67 783.455C2608.76 782.022 2606.59 781.473 2604.56 781.443C2548.97 778.798 2486.13 777.477 2416.07 777.477C2374.43 777.477 2342.96 777.807 2321.72 778.471L2315.35 778.67L2315.57 785.039C2319.53 900.606 2321.51 1009.89 2321.51 1112.88V1176.23L2320.52 1213.81L2320.52 1213.86L2320.52 1213.92C2319.86 1282.53 2317.22 1365.03 2312.6 1461.45L2312.29 1467.85L2318.69 1468.1C2401.3 1471.41 2463.84 1473.07 2506.26 1473.07C2549.32 1473.07 2611.17 1471.41 2691.75 1468.11C2694.12 1468.08 2696.35 1467.48 2698.41 1466.45L2699.33 1465.99L2700.06 1465.26C2701.51 1463.81 2702.6 1461.97 2703.04 1459.78C2703.42 1457.84 2703.23 1455.97 2702.74 1454.31L2697.94 1427.39C2697.8 1424.85 2696.82 1422.11 2694.33 1420.12C2691.9 1418.18 2688.98 1417.74 2686.65 1417.74H2686.5L2686.35 1417.75C2630.28 1420.39 2576.2 1421.7 2524.1 1421.7C2474.51 1421.7 2420.9 1420.48 2363.29 1418.02Z" fill="#371BE4" stroke="#371BE4" stroke-width="12.7067"/>
<path d="M3314.73 288.242C3284.9 263.831 3262.59 244.901 3247.75 231.416C3233.97 217.616 3222.85 202.553 3214.35 186.227C3206.05 169.596 3201.8 150.229 3201.8 127.957C3201.8 108.062 3209.16 91.8267 3224.06 78.7842C3239.01 65.7026 3258.15 58.9684 3282.01 58.9684C3312.35 58.9684 3333.98 69.1844 3348.15 88.9066L3348.46 89.3384L3348.84 89.7144C3350.64 91.5203 3353.16 93.4031 3356.37 93.8616C3359.71 94.3391 3362.57 93.1214 3364.68 91.2606L3388.74 75.2214L3389.27 74.862L3389.73 74.4039C3391.54 72.5981 3393.42 70.0851 3393.88 66.875C3394.36 63.4984 3393.11 60.6157 3391.22 58.5009C3379.66 42.0355 3364.19 29.5237 3344.99 20.9694C3325.69 11.6973 3304.67 7.09571 3282.01 7.09571C3244.52 7.09571 3212.95 18.4623 3187.78 41.4722C3162.59 64.5038 3149.93 93.4833 3149.93 127.957C3149.93 157.377 3155.53 183.587 3166.95 206.415L3166.98 206.488L3167.02 206.559C3178.86 228.843 3192.84 248.096 3209 264.254C3224.86 280.117 3249.2 301.699 3281.89 328.947C3316.53 358.149 3342.52 381.791 3359.98 399.92L3360.06 400.009L3360.15 400.094C3377.98 417.265 3393.58 438.141 3406.91 462.797C3419.95 486.931 3426.54 514.084 3426.54 544.404C3426.54 580.737 3413.65 610.24 3387.88 633.439C3362.79 655.952 3329.43 667.49 3287.12 667.49C3241.65 667.49 3204.55 653.378 3175.28 625.412C3146.08 597.51 3131.02 561.159 3130.35 515.77C3130.34 513.071 3129.65 509.864 3127.16 507.37C3124.65 504.859 3121.41 504.178 3118.7 504.178H3090.12C3087.41 504.178 3084.18 504.859 3081.67 507.37C3079.16 509.88 3078.48 513.114 3078.48 515.824V515.882L3078.48 515.941C3079.18 555.067 3088.62 590.217 3106.95 621.223C3125.21 652.136 3149.85 676.43 3180.8 694.011L3180.87 694.055L3180.95 694.096C3212.61 710.981 3248.05 719.362 3287.12 719.362C3323.41 719.362 3356.09 712.029 3385.03 697.208C3413.91 682.413 3436.6 661.894 3452.91 635.66C3469.94 608.689 3478.41 578.208 3478.41 544.404C3478.41 506.708 3470.37 472.32 3454.2 441.371C3438.29 410.241 3419.2 383.812 3396.88 362.175C3375.56 340.178 3348.16 315.531 3314.73 288.242Z" fill="#371BE4" stroke="#371BE4" stroke-width="13.0859"/>
<path d="M3068.5 712.519L3068.45 712.277L3068.39 712.04C3049.69 637.911 2979.73 366.033 2850.84 38.7977C2847.41 30.0929 2838.12 25.107 2828.95 27.156L2813.26 30.6601C2804.15 32.6962 2797.89 41.0167 2798.35 50.2963C2802.25 128.497 2800.55 211.462 2793.24 299.198C2785.49 390.294 2771.48 478.013 2751.24 562.359L2751.24 562.364L2742.47 599C2736.02 623.376 2728.1 650.847 2718.71 681.419C2717.7 683.884 2717.58 686.817 2719.12 689.581C2720.53 692.114 2722.88 693.626 2724.84 694.568L2725.21 694.747L2725.61 694.876L2752.25 703.622L2752.38 703.667L2752.52 703.706C2755.76 704.609 2759.03 704.048 2761.79 702.116C2764.07 700.516 2765.75 698.31 2766.63 695.615L2766.64 695.589L2766.65 695.564C2776.62 664.175 2785.56 633.819 2793.46 604.496C2829.24 602.154 2840.66 603.605 2875.69 608.055C2879.09 608.487 2882.72 608.947 2886.6 609.434C2925.91 614.362 2957.34 614.433 2978.99 614.261C2983.79 627.67 2990.11 644.02 2996.35 660.157C2997.86 664.041 2999.35 667.912 3000.82 671.727C3009.1 693.207 3016.41 712.652 3019.23 723.208C3019.72 725.725 3020.96 728.518 3023.72 730.358C3026.53 732.225 3029.67 732.289 3032.18 731.859L3032.39 731.822L3032.6 731.772L3059.45 725.273C3061.91 724.813 3064.74 723.69 3066.69 721.079C3068.77 718.311 3068.94 715.116 3068.5 712.519ZM2887.72 556.315C2876.44 556.417 2867.68 555.851 2858.52 555.26C2855.31 555.052 2852.05 554.842 2848.62 554.655C2837.09 554.03 2824.06 553.723 2805.3 554.843C2832.98 427.187 2848.05 301.914 2850.49 179.031C2877 250.724 2897.13 320.586 2914.16 383.453C2918.69 400.154 2923 416.385 2927.15 432.038C2940.01 480.466 2951.4 523.356 2963.09 557.456C2954.43 559.196 2945.93 559.173 2935.76 558.564C2932.67 558.379 2929.42 558.138 2925.96 557.883C2915.37 557.099 2902.92 556.178 2887.72 556.315Z" fill="#371BE4" stroke="#371BE4" stroke-width="12.7067"/>
<path d="M2350.88 113.208C2395.59 215.791 2443.63 319.802 2494.99 425.241L2494.99 425.249L2495 425.257C2551.61 540.667 2603.27 639.641 2649.97 722.162L2652.02 725.785L2656.16 725.352L2675.65 723.317C2678.15 723.197 2680.39 722.03 2681.89 720.059C2683.88 717.939 2684.54 715.281 2684.56 712.946C2688.94 535.78 2691.14 338.375 2691.14 120.735V19.8174C2691.14 17.6946 2690.86 15.0654 2689.53 12.7665C2687.89 9.94017 2685.04 8.31516 2681.79 8.31516H2665.06C2661.81 8.31516 2658.96 9.94017 2657.32 12.7665C2655.99 15.0654 2655.72 17.6946 2655.72 19.8174V94.9908C2655.72 290.443 2654.08 471.47 2650.81 638.074C2606.94 559.965 2559.01 467.608 2507.02 360.988C2450.54 244.485 2398.43 129.701 2350.7 16.6372C2350.22 15.0781 2349.55 13.4 2348.51 11.9675C2347.93 11.1695 2347.08 10.2577 2345.96 9.5448C2345.51 9.1012 2345 8.71118 2344.44 8.38685C2342.71 7.39202 2340.93 7.28534 2339.93 7.28534H2339.54L2339.15 7.33292L2322.66 9.36332C2320.57 9.50669 2318.94 10.4643 2317.85 11.3997C2316.72 12.3775 2315.9 13.5489 2315.31 14.5686L2315.31 14.5687C2314.08 16.6959 2313.85 19.0676 2313.85 20.8471V20.9038L2313.85 20.9606C2316.24 154.783 2317.44 312.985 2317.44 495.573C2317.44 594.428 2317.24 666.832 2316.84 712.8L2316.84 712.827V712.855C2316.84 714.851 2317.13 716.82 2317.69 718.744L2318.22 720.556L2319.65 721.787C2321.13 723.062 2323.17 724.208 2325.69 724.344L2342.14 726.369L2342.53 726.416H2342.92C2346.17 726.416 2349.01 724.791 2350.65 721.965C2351.98 719.677 2352.26 717.063 2352.26 714.945C2352.66 670.29 2352.86 599.907 2352.86 503.811C2352.86 350.399 2352.2 220.196 2350.88 113.208Z" fill="#371BE4" stroke="#371BE4" stroke-width="12.7067"/>
<circle cx="2715.01" cy="1823.24" r="269.767" fill="#FFBCD9"/>
<path d="M2984.77 1823.24C2984.77 1787.81 2977.79 1752.73 2964.24 1720C2950.68 1687.27 2930.81 1657.54 2905.76 1632.49C2880.71 1607.44 2850.97 1587.56 2818.24 1574.01C2785.51 1560.45 2750.43 1553.47 2715.01 1553.47C2679.58 1553.47 2644.5 1560.45 2611.77 1574.01C2579.04 1587.56 2549.3 1607.44 2524.25 1632.49C2499.2 1657.54 2479.33 1687.27 2465.77 1720C2452.22 1752.73 2445.24 1787.81 2445.24 1823.24L2715.01 1823.24H2984.77Z" fill="#9854CB"/>
<path d="M2984.78 1802.29C2984.78 1769.61 2977.8 1737.26 2964.24 1707.07C2950.68 1676.88 2930.81 1649.45 2905.76 1626.35C2880.71 1603.24 2850.97 1584.92 2818.24 1572.41C2785.51 1559.91 2750.43 1553.47 2715.01 1553.47L2715.01 1802.29L2715.01 2119.81H2984.78V1802.29Z" fill="#9854CB"/>
<ellipse cx="3107.98" cy="1912.76" rx="29.194" ry="31.0911" fill="#FF4A97"/>
<ellipse cx="3107.98" cy="1805.55" rx="29.194" ry="31.0911" fill="#FF4A97"/>
<ellipse cx="3107.98" cy="1698.34" rx="29.194" ry="31.0911" fill="#FF4A97"/>
<circle cx="111.288" cy="111.288" r="111.288" transform="matrix(-1 0 0 1 3262.14 875.482)" fill="#FF024B"/>
<circle cx="111.079" cy="111.079" r="111.079" transform="matrix(-1 0 0 1 3437.44 1129.34)" fill="#FF024B"/>
<circle cx="192.124" cy="192.124" r="192.124" transform="matrix(-1 0 0 1 3362.3 966.605)" fill="#FFBCD9"/>
<path d="M2978.05 1158.88C2978.05 1133.65 2983.02 1108.66 2992.68 1085.36C3002.33 1062.05 3016.48 1040.87 3034.32 1023.03C3052.16 1005.19 3073.34 991.034 3096.65 981.378C3119.96 971.723 3144.95 966.754 3170.18 966.754L3170.18 1158.88H2978.05Z" fill="#FF024B"/>
<circle cx="182.467" cy="182.467" r="182.467" transform="matrix(-1 0 0 1 3493.3 875.482)" fill="#FF024B"/>
</svg>
